<svg width="485" height="276" viewBox="0 0 485 276" fill="none" xmlns="http://www.w3.org/2000/svg">
<g clip-path="url(#clip0_70_40)">
<path fill-rule="evenodd" clip-rule="evenodd" d="M183.903 234.235C183.517 234.141 181.621 233.81 179.69 233.498C164.403 231.027 153.743 220.885 149.89 205.145C148.682 200.209 148.8 190.036 150.129 184.644C152.823 173.714 159.565 165.372 169.65 160.494C175.033 157.889 179.849 156.724 186.394 156.442C194.419 156.097 200.34 157.211 208.597 160.621L211.991 162.023V164.246C211.991 165.468 211.854 168.71 211.686 171.45L211.381 176.431L207.556 172.762C201.311 166.77 195.786 164.267 188.85 164.285C180.153 164.307 173.712 168.591 169.446 177.19C165.537 185.07 164.857 196.113 167.682 205.86C171.801 220.072 184.389 228.024 197.776 224.869C201.83 223.914 205.357 222.256 209.708 219.261C211.777 217.837 213.506 216.671 213.55 216.67C213.593 216.67 213.563 218.618 213.483 221L213.336 225.331L210.338 227.335C203.815 231.692 197.152 233.866 189.286 234.204C186.711 234.315 184.289 234.329 183.903 234.235ZM135.672 232.438C129.447 231.029 127.395 228.763 118.469 213.439C109.95 198.814 108.625 196.426 108.298 195.099C108.008 193.923 108.089 193.866 110.488 193.562C115.152 192.971 117.466 191.913 120.307 189.074C122.33 187.052 123.139 185.825 123.706 183.918C124.755 180.387 124.656 175.77 123.476 173.163C120.948 167.584 116.07 165.386 107.554 165.991L103.351 166.289L103.618 226.261L104.689 228.584C105.278 229.861 106.101 231.282 106.517 231.742C107.242 232.542 106.775 232.577 95.4982 232.577C89.0214 232.577 83.7219 232.444 83.7219 232.282C83.7219 232.119 84.1231 231.329 84.6138 230.528C85.1039 229.725 85.8815 227.911 86.3412 226.495C87.0949 224.176 87.1946 221.263 87.3557 196.89C87.5715 164.229 87.4053 162.567 83.5557 158.973L82.1237 157.637L101.531 157.839C119.616 158.027 121.194 158.11 124.684 159.056C132.642 161.211 137.006 164.361 139.591 169.815C140.957 172.695 141.069 173.3 141.069 177.842C141.069 182.33 140.95 182.996 139.691 185.561C137.299 190.437 132.527 194.392 127.025 196.059C125.995 196.371 124.858 196.72 124.498 196.836C124.128 196.955 124.912 197.578 126.304 198.271C129.275 199.75 131.43 202.515 136.23 211.003C143.075 223.108 146.337 227.256 150.517 229.168C153.199 230.395 153.62 231.277 151.952 232.178C150.451 232.988 138.918 233.173 135.672 232.438ZM0.0084001 232.226C0.0968798 232.033 1.17034 229.927 2.39408 227.546C5.23854 222.011 8.4739 215.025 20.8269 187.744L30.8541 165.601L29.2713 162.322C28.291 160.292 27.8842 158.973 28.2025 158.855C29.7938 158.269 43.2839 155.989 43.5685 156.259C43.7553 156.435 47.7828 165.627 52.5185 176.685C64.4188 204.472 73.4873 224.778 75.7396 228.681C76.7826 230.49 77.6365 232.106 77.6365 232.273C77.6365 232.44 73.353 232.577 68.1181 232.577H58.5998L58.1269 231.057C57.8667 230.221 56.1125 225.902 54.2287 221.46L50.8033 213.384L20.3447 213.63L12.4077 232.577H6.12801C2.67403 232.577 -0.0796115 232.419 0.0084001 232.226ZM47.5417 204.391C44.6836 197.252 36.2228 177.842 35.9691 177.842C35.7781 177.842 34.5108 180.315 33.1527 183.339C30.2338 189.836 23.801 204.619 23.801 204.829C23.801 204.909 29.1955 204.975 35.7884 204.975C45.1911 204.975 47.7257 204.85 47.5417 204.391ZM213.395 232.115C213.395 231.846 214.526 229.366 215.909 226.605C219.05 220.331 228.483 199.868 238.836 176.866C244.28 164.77 244.235 164.997 241.952 161.13C241.416 160.222 241.098 159.357 241.247 159.209C241.488 158.968 256.62 155.856 256.752 156.02C256.782 156.057 259.445 162.193 262.671 169.655C283.475 217.788 287.264 226.315 289.486 230.003L291.037 232.577H271.61L269.93 228.25C269.005 225.87 267.291 221.607 266.121 218.776L263.994 213.63H233.427L225.607 232.343L219.501 232.474C215.481 232.56 213.395 232.437 213.395 232.115ZM260.677 204.739C260.677 204.608 258.232 198.661 255.244 191.523C252.257 184.384 249.706 178.28 249.577 177.959C249.109 176.798 248.615 177.442 246.885 181.467C241.726 193.473 237.27 204.167 237.27 204.545C237.27 204.796 242.17 204.975 248.974 204.975C255.41 204.975 260.677 204.869 260.677 204.739ZM296.255 232.347C296.255 232.182 296.763 231.377 297.383 230.558C299.855 227.297 299.922 226.488 300.171 197.49C300.454 164.332 300.277 162.442 296.57 159.058L295.11 157.725H312.086C321.422 157.725 331.107 157.949 333.607 158.223C350.568 160.079 361.888 167.561 366.828 180.181C368.805 185.234 369.034 186.757 369.002 194.683C368.976 201.107 368.799 203.031 367.946 206.145C364.288 219.508 355.818 227.264 340.493 231.284C337.033 232.191 335.209 232.28 316.502 232.456C305.366 232.562 296.255 232.512 296.255 232.347ZM335.612 223.261C341.715 221.353 347.083 216.783 349.672 211.291C352.049 206.249 352.641 203.088 352.654 195.385C352.663 189.318 352.517 187.893 351.569 184.859C348.433 174.817 342.372 168.909 333.101 166.858C330.656 166.318 327.856 166.149 322.938 166.246L316.151 166.38V223.922L318.257 224.236C322.382 224.849 332.316 224.291 335.612 223.261ZM377.71 232.316C377.71 232.172 378.329 231.277 379.086 230.328C381.647 227.115 381.689 226.531 381.689 194.449C381.689 161.995 381.761 162.844 378.77 159.536L377.133 157.725H402.618L401.107 159.446C397.955 163.034 398.089 161.641 397.928 192.344C397.755 225.459 397.964 227.93 401.253 231.524L402.216 232.577H389.963C383.224 232.577 377.71 232.46 377.71 232.316ZM406.735 232.332C406.735 232.197 407.482 230.602 408.397 228.788C409.311 226.974 411.392 222.611 413.022 219.093C414.653 215.574 418.142 208.064 420.777 202.403C423.412 196.742 428.265 186.155 431.562 178.876C438.082 164.479 437.908 165.209 435.807 161.094C435.045 159.602 434.942 159.059 435.394 158.902C436.088 158.661 448.118 156.398 449.69 156.213C450.653 156.099 451.299 157.331 456.858 169.889C460.219 177.48 465.357 189.269 468.275 196.087C474.825 211.394 480.639 224.229 483.071 228.754C484.084 230.639 484.913 232.271 484.913 232.379C484.913 232.488 480.542 232.571 475.199 232.563L465.485 232.549L457.995 213.403L427.686 213.631L424.547 222.549C422.821 227.455 421.255 231.718 421.066 232.023C420.826 232.41 418.616 232.577 413.729 232.577C409.882 232.577 406.735 232.467 406.735 232.332ZM454.484 204.692C454.484 204.536 452.822 200.483 450.79 195.686C448.758 190.889 446.204 184.807 445.114 182.169C444.025 179.532 442.974 177.374 442.78 177.374C442.586 177.374 441.533 179.427 440.44 181.936C438.138 187.217 431.098 203.528 430.747 204.391C430.561 204.85 433.092 204.976 442.497 204.976C449.09 204.976 454.484 204.848 454.484 204.692Z" fill="white"/>
<path fill-rule="evenodd" clip-rule="evenodd" d="M298.503 125.905C285.486 123.334 252.438 119.802 228.795 118.455C193.508 116.446 138.749 116.754 106.612 119.144C96.3174 119.909 71.9265 122.347 64.3992 123.362C61.8656 123.704 59.8451 123.971 58.3254 124.156C52.4502 124.873 54.0527 124.366 62.3927 122.209C90.9249 114.832 137.818 108.451 179.406 106.285C184.684 106.01 190.688 105.686 192.748 105.565C202.987 104.962 244.471 104.781 258.053 105.281C297.809 106.744 334.258 110.278 369.937 116.129C381.73 118.063 409.651 123.342 410.017 123.707C410.073 123.762 400.393 123.734 388.507 123.645C366.886 123.481 357.02 123.835 344.153 125.239L337.798 125.932L328.471 124.062C308.874 120.132 295.088 118.361 266.479 116.102C263.003 115.828 257.116 115.297 257.116 115.525C257.116 115.752 289.711 121.944 299.717 125.179C305.195 126.95 304.847 127.158 298.503 125.905ZM401.302 116.067C378.638 111.355 347.469 106.872 318.676 104.181C311.636 103.523 288.407 102.054 288.407 102.054L288.481 95.708L293.748 96.071C318.482 97.9423 352.765 103.191 376.77 108.782C390.756 112.04 410.537 117.218 411.094 117.768C411.457 118.127 409.975 117.869 401.302 116.067ZM87.652 105.616C87.652 101.342 87.5383 97.8436 87.3992 97.8436C87.2602 97.8436 86.3206 98.2646 85.3113 98.7792C84.302 99.2939 82.8128 99.7149 82.0024 99.7149C80.4051 99.7149 80.4547 100.012 81.4023 96.1295C81.6677 95.0418 81.5928 94.9281 80.8171 95.2359C78.8616 96.0116 72.8862 96.1145 71.5145 95.3964L70.1822 94.6989L73.1718 93.1134C75.4929 91.8826 76.6052 90.9006 78.1454 88.721C79.2366 87.1772 80.1369 85.7681 80.1458 85.5899C80.1547 85.4116 79.1018 85.2895 77.806 85.319C76.1085 85.3578 75.0949 85.108 74.1783 84.4245C72.7659 83.3715 72.2392 81.9376 73.2649 81.9376C74.4569 81.9376 79.4286 79.2059 81.2188 77.5676C83.1274 75.8203 83.6213 74.5394 82.0652 75.3716C79.7642 76.6025 76.4488 75.2332 75.7405 72.7598C75.4957 71.9055 75.7002 71.7278 77.2241 71.4709C78.1959 71.3067 79.4829 70.7916 80.083 70.3257L81.1748 69.4785L79.1697 68.6916C76.9174 67.8074 77.0593 67.4879 80.2216 66.3263C82.3545 65.5427 84.3146 63.9441 83.788 63.4178C83.64 63.27 83.0932 63.3766 82.5736 63.6545C81.0147 64.4882 80.1973 64.2412 79.2202 62.6398C77.9764 60.6006 78.0302 60.4176 79.8771 60.4176C81.1045 60.4176 82.0076 59.9302 83.8563 58.2694C85.1713 57.0877 86.2476 55.9555 86.2476 55.7539C86.2476 55.5518 85.3516 55.4877 84.2566 55.6107C82.6358 55.7937 82.0956 55.6472 81.3494 54.8234C80.5685 53.9607 80.5343 53.7474 81.1167 53.3792C81.4926 53.1416 82.1312 52.9437 82.5352 52.9399C83.369 52.9315 87.1839 49.8172 87.1839 49.1449C87.1839 48.9026 86.6488 48.8385 85.9948 49.0027C85.1854 49.2058 84.5122 49.0359 83.8881 48.4713C82.5895 47.297 82.7159 47.0079 84.9602 46.0133C87.0458 45.0889 88.4694 43.7692 87.9451 43.2452C87.7752 43.0754 87.3871 43.1858 87.0823 43.4903C86.4077 44.1645 85.3113 44.2187 85.3113 43.5774C85.3113 43.321 86.0486 42.2955 86.9498 41.2986C88.446 39.6434 89.3416 37.9578 88.0266 39.272C87.7176 39.5807 86.9554 39.8334 86.3337 39.8334C85.2303 39.8334 85.2439 39.7875 86.889 37.9681C87.9844 36.7565 88.681 35.441 88.8772 34.2153C89.0434 33.1772 89.3491 32.2228 89.5565 32.0946C89.7638 31.9664 90.4736 32.9358 91.1336 34.2485C92.4023 36.7729 92.6364 37.737 91.8654 37.2603C91.6079 37.1017 91.3972 37.2776 91.3972 37.6524C91.3972 38.494 94.4547 41.2368 95.3924 41.2368C96.3965 41.2368 96.2304 42.9944 95.1728 43.5596C94.6747 43.8262 93.8063 44.0438 93.2431 44.0438C92.4206 44.0438 92.3255 44.1724 92.7595 44.6955C93.0573 45.0538 93.9289 45.6068 94.6972 45.9249C95.9256 46.4334 96.0019 46.5696 95.3315 47.0594C94.655 47.5539 94.7398 47.7588 96.0937 48.8975C97.2476 49.8677 97.4859 50.3098 97.0754 50.7201C96.6648 51.1304 96.1732 51.1257 95.0492 50.7019C94.2332 50.394 93.4599 50.2476 93.3307 50.3762C92.8873 50.8197 96.75 54.349 98.286 54.9043C101.054 55.9045 99.7091 57.9068 96.5538 57.4839L94.6976 57.2355L95.3961 58.5847C96.2996 60.3316 98.6039 61.5273 100.382 61.1718L101.747 60.899L101.604 63.1146L101.462 65.3298L99.6296 65.218L97.7972 65.1062L98.8843 66.2626C99.4821 66.8989 100.394 67.5529 100.91 67.7166C101.76 67.9861 101.774 68.0563 101.061 68.4553C100.627 68.6977 99.8557 68.7636 99.3459 68.6018C98.3113 68.2738 98.1025 68.9306 99.0041 69.6749C99.4128 70.0123 100.155 69.9496 101.462 69.4677C102.492 69.0878 103.715 68.6579 104.18 68.5124C104.65 68.3655 104.917 67.965 104.782 67.6123C104.626 67.2072 104.998 66.8666 105.809 66.6724C108.887 65.9356 111.943 63.6774 113.251 61.175L113.955 59.8268L112.624 60.2338C111.892 60.4583 110.095 60.6436 108.631 60.6464C106.321 60.6511 105.781 60.4705 104.535 59.2775C102.739 57.5583 102.631 56.2072 104.29 56.2072C105.55 56.2072 108.922 54.6732 109.416 53.8751C109.583 53.6056 109.233 53.4003 108.607 53.4003C107.603 53.4003 104.037 50.3734 104.037 49.5211C104.037 49.3391 105.098 49.1898 106.396 49.1898C109.1 49.1898 111.915 47.9604 114.218 45.7733C115.884 44.1911 116.297 42.7713 114.921 43.3565C112.031 44.5851 110.72 44.6735 109.133 43.7472C106.163 42.0139 105.821 39.3089 108.625 39.7201C109.566 39.8582 110.373 39.562 111.393 38.705C112.185 38.0392 113.144 37.4942 113.524 37.4942C114.233 37.4942 118.324 33.3718 117.968 33.0157C117.86 32.9072 116.584 33.0382 115.132 33.3063C112.926 33.7137 112.306 33.6707 111.347 33.0429C109.605 31.9023 109.466 30.9896 110.951 30.4525C113.402 29.5655 114.539 28.8236 117.12 26.4278C119.905 23.8431 120.078 23.1409 117.708 24.0345C116.418 24.5215 116.062 24.4695 114.931 23.6293C114.217 23.0993 113.574 22.1599 113.501 21.5424C113.39 20.6034 113.715 20.2778 115.478 19.5588C117.514 18.7293 120.763 15.6922 120.208 15.1378C120.059 14.9891 119.688 15.1163 119.383 15.4209C118.767 16.0375 115.74 16.1872 115.74 15.6014C115.74 15.3965 116.6 14.3968 117.651 13.3793C119.724 11.3737 121.157 9.05331 120.626 8.56303C120.443 8.39368 120.195 8.53215 120.074 8.87039C119.784 9.68534 117.814 10.4086 116.871 10.047C116.279 9.81961 116.534 9.40418 118.084 8.06994C119.618 6.74927 120.266 5.70369 121.053 3.27614C121.607 1.56858 122.271 0.0954059 122.528 0.00277662C122.946 -0.147395 126 5.3472 126.028 6.29876C126.034 6.50881 125.618 6.54764 125.103 6.3839C124.474 6.18461 124.167 6.30016 124.167 6.73618C124.167 7.67978 127.195 11.0664 129.08 12.2308C130.652 13.2015 130.678 13.2651 129.954 14.3692C129.45 15.1388 128.772 15.5065 127.857 15.5065C125.911 15.5065 126.185 16.167 128.848 17.891C130.135 18.7246 131.188 19.5059 131.188 19.6275C131.188 19.7487 130.82 20.1356 130.369 20.4869C129.612 21.0773 129.688 21.2453 131.379 22.7049L133.207 24.2843L132.129 24.8611C131.288 25.3111 130.644 25.3163 129.201 24.884C128.184 24.5795 127.273 24.4097 127.177 24.506C127.08 24.6024 127.643 25.4599 128.429 26.4119C130.103 28.4418 133.33 30.7599 135.1 31.2039C136.948 31.6675 137.022 32.2041 135.454 33.7713C133.934 35.2903 132.617 35.3128 130.369 33.8578C128.869 32.8871 129.065 33.5832 130.934 35.8629C132.802 38.1403 135.072 39.366 137.426 39.366C138.902 39.366 139.132 39.5405 139.629 41.0464C139.935 41.9718 140.003 42.8887 139.783 43.0875C138.97 43.8173 136.526 44.3773 135.079 44.1649C133.811 43.9792 133.624 44.0747 133.815 44.8143C134.002 45.5422 133.226 45.9904 128.985 47.6035L124.401 49.5257C124.401 49.5257 124.148 60.5552 124.263 60.6707C124.379 60.7863 126.34 60.2502 128.621 59.4796C130.902 58.7091 133.617 57.6107 133.617 57.6107C133.617 57.6107 133.529 66.0783 133.529 75.8558C133.529 95.4685 133.728 94.3111 130.588 93.0082C129.759 92.6643 128.503 92.2395 127.794 92.0636L126.507 91.7441V98.9954L126.283 106.227L119.953 107.182V99.4721C119.953 95.2317 119.786 91.7619 119.581 91.7619C119.376 91.7619 117.848 92.494 116.187 93.389C113.094 95.054 110.277 95.5157 109.859 94.4257C109.729 94.0898 110.03 92.5109 110.526 90.917C111.022 89.3236 111.323 88.0193 111.194 88.0193C111.065 88.0193 109.672 88.3528 108.098 88.7608C106.524 89.1683 104.439 89.426 103.466 89.3329C102.492 89.2403 101.696 89.3021 101.696 89.4705C101.696 89.7937 105.715 92.9408 107.899 94.327C109.705 95.4736 109.515 95.8656 106.974 96.2464C104.968 96.5472 102.636 96.2006 100.104 95.2256C99.1876 94.8724 99.1914 95.3454 100.131 98.4906C100.372 99.2967 100.171 99.3533 97.7752 99.1544C96.2538 99.0286 94.795 98.6104 94.2932 98.1566C93.8185 97.7276 92.8204 97.3758 92.6476 97.3758C92.4749 97.3758 92.9187 112.507 92.9187 112.507L87.652 113.388V105.616ZM103.075 84.0736C103.409 83.6709 103.559 83.341 103.408 83.341C103.18 83.341 99.9727 84.7174 99.4255 85.0505C99.3351 85.1057 99.3997 85.3742 99.5692 85.6474C99.9254 86.2238 102.1 85.2479 103.075 84.0736ZM106.006 80.1832C107.639 78.4443 110.303 74.0093 109.935 73.6416C109.772 73.4788 109.389 73.5944 109.085 73.8989C108.403 74.5806 106.394 74.6138 104.704 73.9719C102.967 73.3118 102.745 73.7417 103.967 75.3941L105.001 76.7915H102.677C101.398 76.7915 99.7831 76.5754 99.087 76.311C98.3909 76.0462 97.7434 75.9073 97.6488 76.0018C97.3029 76.348 100.855 79.6256 102.539 80.5144C104.745 81.6789 104.587 81.6938 106.006 80.1832ZM137.487 104.45C137.37 104.333 137.274 93.4423 137.274 80.2482V56.2591L153.542 50.8876C162.489 47.9333 177.211 43.0829 186.258 40.1084L202.708 34.7009L215.283 39.8815C222.199 42.7306 231.018 46.3338 234.88 47.8888C245.14 52.0192 264.121 59.8263 273.267 63.6779C277.644 65.5207 284.736 68.4726 284.736 68.4726V101.725L280.874 101.433C260.102 99.8646 206.699 99.3752 187.365 100.576C174.03 101.404 154.58 102.93 145.562 103.856C141.238 104.3 137.604 104.567 137.487 104.45ZM271.625 97.1671L280.818 97.8768L280.691 71.8513L263.326 65.2872C262.102 64.825 254.67 61.9446 246.818 58.8696C238.965 55.7946 228.748 51.8232 224.113 50.0446C219.478 48.2659 213.02 45.7672 209.762 44.4915C206.503 43.2162 203.712 42.1725 203.559 42.1725C203.406 42.1725 203.281 54.5932 203.281 69.7741V92.2297H207.494C207.494 92.2297 207.201 49.1898 207.453 49.1898C207.688 49.1898 212.106 50.5835 216.699 52.2864C221.292 53.9888 229.895 57.0067 235.816 58.9926L246.584 62.6033L246.818 79.8726L247.052 95.2706L259.923 96.2642L259.457 66.9672L271.16 70.7098L271.625 97.1671ZM226.914 62.5649L214.454 58.9309L214.496 69.9856C214.496 69.9856 220.549 70.9792 226.92 72.2077L226.914 62.5649ZM214.509 73.3029L214.549 84.1092L226.929 85.8944L226.922 75.5438C220.873 74.3686 215.768 73.5078 214.509 73.3029ZM230.207 86.3674L240.941 87.9154L240.823 78.326C240.823 78.326 236.004 77.3431 230.2 76.1903L230.207 86.3674ZM240.782 74.9754L240.679 66.5798L230.191 63.5207L230.198 72.851C235.35 73.8727 239.573 74.7293 240.782 74.9754ZM361.276 98.2543C351.919 97.7706 338.413 96.4336 319.378 94.1066C305.266 92.3817 298.546 91.6365 291.641 91.0297L288.481 90.7518V70.256L290.705 71.1388L298.002 73.6196C298.002 73.6196 297.596 66.5213 297.767 66.6107C297.938 66.7001 301.062 68.016 302.993 68.9639C306.985 70.9222 312.926 72.1989 313.833 71.2927C314.647 70.4791 313.676 69.5589 309.923 67.588C306.283 65.6765 303.742 63.5366 304.056 62.6473C304.542 61.2724 312.733 62.9069 317.494 65.3288C318.659 65.9221 321.603 67.8897 324.037 69.7016C326.794 71.7549 330.416 73.8812 333.647 75.344C340.037 78.2366 345.126 80.1734 345.124 79.7117C345.123 79.5208 343.725 78.6427 342.018 77.7608C338.894 76.1464 334.902 72.5684 331.253 68.1129C329.318 65.7508 329.315 65.749 324.465 64.7333C318.491 63.4828 313.232 60.9687 309.222 57.4469C306.528 55.0821 305.793 54.7261 298.923 52.4641C290.324 49.6333 289.758 49.3714 285.536 46.2655C283.788 44.9794 282.269 44.0148 282.161 44.1219C281.849 44.4349 283.979 48.7548 286.104 52.1184C287.181 53.8222 289.342 56.4009 290.907 57.8488C293.569 60.311 293.643 60.434 292.053 59.7477L288.598 58.2582C286.643 57.4156 262.983 46.6599 259.059 44.8297L256.555 43.6616L260.944 41.0806C268.16 36.836 273.163 35.2272 276.684 36.0178C277.754 36.2578 281.32 38.0332 284.608 39.9629C291.878 44.2276 297.92 47.269 302.291 48.8633C307.407 50.729 311.135 52.3224 317.486 55.3581C327.271 60.035 325.769 59.8974 334.781 56.9459C351.897 51.339 357.567 50.7126 366.48 53.4442C373.107 55.4751 376.311 57.447 384.683 64.6477C399.896 77.7323 409.871 84.4081 421.782 89.4766C424.422 90.5993 426.581 91.6702 426.581 91.8568C426.581 92.5067 415.069 95.8628 409.494 96.8387C406.404 97.379 401.16 98.0368 397.84 98.3007C390.936 98.8485 372.313 98.8246 361.276 98.2543ZM374.611 73.7202C374.107 72.7018 373.558 70.8712 373.391 69.652C373.101 67.5426 373.141 67.4355 374.203 67.4369C374.817 67.4378 376.058 67.8939 376.959 68.4506C379.719 70.1559 384.055 72.5811 384.343 72.5811C384.493 72.5811 382.875 70.7392 380.749 68.4876C378.623 66.2364 376.294 63.7626 375.573 62.9907C374.136 61.4525 362.82 55.9981 360.106 55.5354C358.654 55.2884 358.574 55.324 359.402 55.8489C362.272 57.6682 364.2 60.2885 365.875 64.6454C367.212 68.1199 368.032 69.5238 369.584 70.9905C372.504 73.7525 375.16 75.9382 375.356 75.7426C375.45 75.6481 375.115 74.7382 374.611 73.7202ZM376.491 78.9313C376.491 78.8214 375.284 78.1795 373.809 77.5045C372.109 76.7269 369.837 75.0269 367.606 72.8641C365.669 70.9867 363.664 69.2375 363.149 68.9765C361.788 68.2878 359.17 67.8598 359.17 68.3257C359.17 69.0289 365.582 74.7981 367.821 76.1089C370.637 77.7585 376.491 79.6639 376.491 78.9313ZM283.332 64.7483C270.821 59.2523 273.744 60.5163 233.487 43.1919L203.069 30.1021L193.93 33.2838C188.903 35.0335 181.524 37.6201 177.534 39.031C157.851 45.9913 147.384 49.7185 143.126 51.2843C135.444 54.1086 126.687 57.1429 126.687 57.1429L126.741 51.8962L130.72 50.3351C150.995 42.3816 166.188 36.2784 193.45 25.1352C198.213 23.1882 202.444 21.5938 202.851 21.5919C203.544 21.5887 211.349 25.2742 245.413 41.6902C258.007 47.7597 263.159 50.1882 287.077 61.3322C291.243 63.2737 293.517 64.3113 293.517 64.3113L293.758 69.0518C293.758 69.0518 290.806 68.0315 283.332 64.7483Z" fill="white"/>
<path d="M86.9072 253.189V275.299H83.2782V260.156L76.5298 275.299H74.0149L67.2343 260.156V275.299H63.6052V253.189H67.5208L75.2883 270.527L83.0235 253.189H86.9072ZM98.4943 253.189V275.299H94.8657V253.189H98.4943ZM105.243 264.196C105.243 262.033 105.747 260.093 106.755 258.375C107.763 256.657 109.132 255.316 110.862 254.351C112.591 253.386 114.485 252.903 116.544 252.903C118.899 252.903 120.995 253.481 122.831 254.637C124.667 255.793 125.998 257.431 126.826 259.552H122.465C121.892 258.386 121.096 257.516 120.077 256.943C119.059 256.371 117.881 256.084 116.544 256.084C115.079 256.084 113.775 256.413 112.629 257.071C111.483 257.728 110.586 258.672 109.939 259.902C109.291 261.132 108.968 262.564 108.968 264.196C108.968 265.83 109.291 267.261 109.939 268.491C110.586 269.721 111.483 270.67 112.629 271.338C113.775 272.006 115.079 272.34 116.544 272.34C117.881 272.34 119.059 272.054 120.077 271.481C121.096 270.909 121.892 270.04 122.465 268.873H126.826C125.998 270.994 124.667 272.627 122.831 273.772C120.995 274.917 118.899 275.49 116.544 275.49C114.464 275.49 112.565 275.007 110.846 274.042C109.127 273.078 107.763 271.736 106.755 270.018C105.747 268.3 105.243 266.36 105.243 264.196ZM145.735 275.299L140.642 266.455H137.872V275.299H134.243V253.189H141.883C143.581 253.189 145.019 253.487 146.197 254.08C147.374 254.674 148.255 255.47 148.838 256.466C149.422 257.463 149.714 258.576 149.714 259.806C149.714 261.249 149.295 262.558 148.457 263.735C147.618 264.912 146.329 265.713 144.589 266.137L150.064 275.299H145.735ZM137.872 263.56H141.883C143.241 263.56 144.265 263.221 144.955 262.542C145.645 261.864 145.99 260.952 145.99 259.806C145.99 258.661 145.65 257.765 144.971 257.118C144.292 256.472 143.262 256.148 141.883 256.148H137.872V263.56ZM167.636 275.522C165.577 275.522 163.683 275.039 161.954 274.074C160.224 273.109 158.855 271.763 157.847 270.034C156.839 268.306 156.335 266.36 156.335 264.196C156.335 262.033 156.839 260.093 157.847 258.375C158.855 256.657 160.224 255.316 161.954 254.351C163.683 253.386 165.577 252.903 167.636 252.903C169.716 252.903 171.62 253.386 173.35 254.351C175.08 255.316 176.443 256.657 177.441 258.375C178.438 260.093 178.937 262.033 178.937 264.196C178.937 266.36 178.438 268.306 177.441 270.034C176.443 271.763 175.08 273.109 173.35 274.074C171.62 275.039 169.716 275.522 167.636 275.522ZM167.636 272.372C169.1 272.372 170.405 272.038 171.551 271.37C172.697 270.702 173.594 269.748 174.241 268.507C174.889 267.266 175.212 265.83 175.212 264.196C175.212 262.564 174.889 261.132 174.241 259.902C173.594 258.672 172.697 257.728 171.551 257.071C170.405 256.413 169.1 256.084 167.636 256.084C166.171 256.084 164.867 256.413 163.721 257.071C162.575 257.728 161.678 258.672 161.031 259.902C160.383 261.132 160.06 262.564 160.06 264.196C160.06 265.83 160.383 267.266 161.031 268.507C161.678 269.748 162.575 270.702 163.721 271.37C164.867 272.038 166.171 272.372 167.636 272.372ZM204.435 275.522C202.95 275.522 201.613 275.262 200.424 274.742C199.236 274.223 198.302 273.486 197.623 272.531C196.944 271.577 196.604 270.463 196.604 269.191H200.488C200.573 270.145 200.949 270.93 201.618 271.545C202.286 272.16 203.225 272.468 204.435 272.468C205.687 272.468 206.663 272.165 207.364 271.561C208.064 270.956 208.414 270.177 208.414 269.223C208.414 268.481 208.197 267.876 207.762 267.409C207.327 266.943 206.786 266.582 206.138 266.328C205.491 266.073 204.594 265.798 203.448 265.501C202.005 265.119 200.833 264.732 199.931 264.34C199.029 263.948 198.26 263.338 197.623 262.51C196.986 261.683 196.668 260.581 196.668 259.202C196.668 257.929 196.986 256.816 197.623 255.862C198.26 254.907 199.151 254.176 200.297 253.667C201.443 253.158 202.769 252.903 204.276 252.903C206.419 252.903 208.175 253.439 209.544 254.51C210.913 255.581 211.672 257.049 211.82 258.916H207.809C207.746 258.11 207.364 257.42 206.663 256.848C205.963 256.275 205.04 255.989 203.894 255.989C202.854 255.989 202.005 256.254 201.347 256.784C200.689 257.315 200.36 258.078 200.36 259.075C200.36 259.754 200.567 260.31 200.981 260.745C201.395 261.18 201.92 261.524 202.557 261.779C203.193 262.033 204.064 262.309 205.167 262.606C206.632 263.009 207.825 263.412 208.748 263.815C209.672 264.218 210.457 264.838 211.104 265.676C211.752 266.514 212.075 267.632 212.075 269.032C212.075 270.156 211.773 271.217 211.168 272.213C210.563 273.21 209.682 274.01 208.526 274.615C207.369 275.219 206.006 275.522 204.435 275.522ZM233.849 253.189V256.148H227.96V275.299H224.331V256.148H218.41V253.189H233.849ZM252.185 275.299L247.092 266.455H244.322V275.299H240.693V253.189H248.333C250.031 253.189 251.469 253.487 252.646 254.08C253.824 254.674 254.705 255.47 255.288 256.466C255.872 257.463 256.164 258.576 256.164 259.806C256.164 261.249 255.745 262.558 254.906 263.735C254.068 264.912 252.779 265.713 251.039 266.137L256.514 275.299H252.185ZM244.322 263.56H248.333C249.691 263.56 250.715 263.221 251.405 262.542C252.095 261.864 252.439 260.952 252.439 259.806C252.439 258.661 252.1 257.765 251.421 257.118C250.742 256.472 249.712 256.148 248.333 256.148H244.322V263.56ZM267.592 253.189V267.282C267.592 268.958 268.032 270.22 268.913 271.068C269.794 271.916 271.019 272.34 272.59 272.34C274.181 272.34 275.418 271.916 276.298 271.068C277.179 270.22 277.619 268.958 277.619 267.282V253.189H281.249V267.219C281.249 269.022 280.856 270.549 280.071 271.8C279.286 273.051 278.235 273.984 276.919 274.599C275.603 275.214 274.15 275.522 272.558 275.522C270.966 275.522 269.518 275.214 268.213 274.599C266.908 273.984 265.873 273.051 265.109 271.8C264.345 270.549 263.963 269.022 263.963 267.219V253.189H267.592ZM287.933 264.196C287.933 262.033 288.437 260.093 289.445 258.375C290.454 256.657 291.823 255.316 293.552 254.351C295.282 253.386 297.176 252.903 299.234 252.903C301.59 252.903 303.685 253.481 305.521 254.637C307.357 255.793 308.688 257.431 309.516 259.552H305.155C304.582 258.386 303.786 257.516 302.768 256.943C301.749 256.371 300.571 256.084 299.234 256.084C297.77 256.084 296.465 256.413 295.319 257.071C294.173 257.728 293.276 258.672 292.629 259.902C291.982 261.132 291.658 262.564 291.658 264.196C291.658 265.83 291.982 267.261 292.629 268.491C293.276 269.721 294.173 270.67 295.319 271.338C296.465 272.006 297.77 272.34 299.234 272.34C300.571 272.34 301.749 272.054 302.768 271.481C303.786 270.909 304.582 270.04 305.155 268.873H309.516C308.688 270.994 307.357 272.627 305.521 273.772C303.685 274.917 301.59 275.49 299.234 275.49C297.154 275.49 295.255 275.007 293.536 274.042C291.817 273.078 290.454 271.736 289.445 270.018C288.437 268.3 287.933 266.36 287.933 264.196ZM331.226 253.189V256.148H325.337V275.299H321.708V256.148H315.787V253.189H331.226ZM341.668 253.189V267.282C341.668 268.958 342.108 270.22 342.989 271.068C343.87 271.916 345.095 272.34 346.665 272.34C348.257 272.34 349.494 271.916 350.374 271.068C351.255 270.22 351.695 268.958 351.695 267.282V253.189H355.324V267.219C355.324 269.022 354.932 270.549 354.146 271.8C353.361 273.051 352.31 273.984 350.995 274.599C349.679 275.214 348.225 275.522 346.634 275.522C345.042 275.522 343.594 275.214 342.288 274.599C340.983 273.984 339.948 273.051 339.184 271.8C338.42 270.549 338.039 269.022 338.039 267.219V253.189H341.668ZM374.71 275.299L369.617 266.455H366.848V275.299H363.219V253.189H370.859C372.556 253.189 373.994 253.487 375.172 254.08C376.35 254.674 377.231 255.47 377.814 256.466C378.398 257.463 378.69 258.576 378.69 259.806C378.69 261.249 378.271 262.558 377.432 263.735C376.594 264.912 375.305 265.713 373.564 266.137L379.04 275.299H374.71ZM366.848 263.56H370.859C372.217 263.56 373.241 263.221 373.93 262.542C374.62 261.864 374.965 260.952 374.965 259.806C374.965 258.661 374.626 257.765 373.946 257.118C373.267 256.472 372.238 256.148 370.859 256.148H366.848V263.56ZM390.149 256.116V262.606H397.789V265.564H390.149V272.34H398.744V275.299H386.521V253.158H398.744V256.116H390.149ZM413.674 275.522C412.189 275.522 410.852 275.262 409.663 274.742C408.475 274.223 407.541 273.486 406.862 272.531C406.183 271.577 405.843 270.463 405.843 269.191H409.727C409.812 270.145 410.188 270.93 410.857 271.545C411.525 272.16 412.464 272.468 413.674 272.468C414.926 272.468 415.902 272.165 416.603 271.561C417.303 270.956 417.653 270.177 417.653 269.223C417.653 268.481 417.436 267.876 417.001 267.409C416.566 266.943 416.025 266.582 415.377 266.328C414.73 266.073 413.833 265.798 412.687 265.501C411.244 265.119 410.072 264.732 409.17 264.34C408.268 263.948 407.498 263.338 406.862 262.51C406.225 261.683 405.907 260.581 405.907 259.202C405.907 257.929 406.225 256.816 406.862 255.862C407.498 254.907 408.39 254.176 409.536 253.667C410.682 253.158 412.008 252.903 413.515 252.903C415.659 252.903 417.415 253.439 418.783 254.51C420.152 255.581 420.911 257.049 421.06 258.916H417.048C416.985 258.11 416.603 257.42 415.902 256.848C415.202 256.275 414.279 255.989 413.133 255.989C412.093 255.989 411.244 256.254 410.586 256.784C409.928 257.315 409.599 258.078 409.599 259.075C409.599 259.754 409.806 260.31 410.22 260.745C410.634 261.18 411.159 261.524 411.796 261.779C412.433 262.033 413.303 262.309 414.406 262.606C415.871 263.009 417.064 263.412 417.988 263.815C418.911 264.218 419.696 264.838 420.343 265.676C420.99 266.514 421.314 267.632 421.314 269.032C421.314 270.156 421.012 271.217 420.407 272.213C419.802 273.21 418.921 274.01 417.765 274.615C416.608 275.219 415.245 275.522 413.674 275.522Z" fill="white"/>
<path fill-rule="evenodd" clip-rule="evenodd" d="M45.1813 263.828V267.289L0.00654602 265.561L45.1813 263.828Z" fill="white"/>
<path fill-rule="evenodd" clip-rule="evenodd" d="M439.738 263.828V267.289L484.913 265.561L439.738 263.828Z" fill="white"/>
</g>
<defs>
<clipPath id="clip0_70_40">
<rect width="485" height="275.549" fill="white"/>
</clipPath>
</defs>
</svg>
